<?xml version="1.0" encoding="UTF-8" standalone="no"?>
<!-- Created with Inkscape (http://www.inkscape.org/) -->

<svg
   xmlns:dc="http://purl.org/dc/elements/1.1/"
   xmlns:cc="http://creativecommons.org/ns#"
   xmlns:rdf="http://www.w3.org/1999/02/22-rdf-syntax-ns#"
   xmlns:svg="http://www.w3.org/2000/svg"
   xmlns="http://www.w3.org/2000/svg"
   xmlns:sodipodi="http://sodipodi.sourceforge.net/DTD/sodipodi-0.dtd"
   xmlns:inkscape="http://www.inkscape.org/namespaces/inkscape"
   width="956"
   height="80"
   id="svg2"
   version="1.1"
   inkscape:version="0.48.2 r9819"
   sodipodi:docname="folder.svg">
  <defs
     id="defs4" />
  <sodipodi:namedview
     id="base"
     pagecolor="#ffffff"
     bordercolor="#666666"
     borderopacity="1.0"
     inkscape:pageopacity="0.0"
     inkscape:pageshadow="2"
     inkscape:zoom="2.8"
     inkscape:cx="156.04138"
     inkscape:cy="-28.389107"
     inkscape:document-units="px"
     inkscape:current-layer="layer1"
     showgrid="false"
     inkscape:window-width="1437"
     inkscape:window-height="795"
     inkscape:window-x="380"
     inkscape:window-y="121"
     inkscape:window-maximized="0" />
  <metadata
     id="metadata7">
    <rdf:RDF>
      <cc:Work
         rdf:about="">
        <dc:format>image/svg+xml</dc:format>
        <dc:type
           rdf:resource="http://purl.org/dc/dcmitype/StillImage" />
        <dc:title></dc:title>
      </cc:Work>
    </rdf:RDF>
  </metadata>
  <g
     inkscape:label="Layer 1"
     inkscape:groupmode="layer"
     id="layer1"
     transform="translate(0,-972.36218)">
    <path
       style="fill:none;stroke:#ffffff;stroke-width:1.00504184000000008;stroke-linecap:butt;stroke-linejoin:miter;stroke-miterlimit:4;stroke-opacity:1;stroke-dasharray:none"
       d="m 1.5203053,1038.6279 c 0.013309,-6.0604 -0.3518274,-45.0036 -0.2041035,-52.09895 0.147724,-7.09536 2.8864076,-11.12598 12.5506032,-10.99964 9.664196,0.12634 302.505835,0.14969 370.202095,0.0613 12.39371,0.49622 11.34696,10.64319 21.89699,11.11169 10.55002,0.46849 528.5779,-1.23902 540.56464,-1.01016 11.98674,0.22886 9.03039,11.29551 9.03039,11.29551 0,0 0.45534,34.43195 0.35714,43.72195 -0.0982,9.29 -9.54042,8.6221 -9.54042,8.6221 0,0 -922.603507,-1.1714 -933.122992,-1.0101 -10.5194853,0.1613 -11.747651,-3.6333 -11.7343427,-9.6937 z"
       id="path2985"
       inkscape:connector-curvature="0"
       sodipodi:nodetypes="czzczzczczzc" />
  </g>
</svg>
